<svg width="25" height="24" viewBox="0 0 25 24" fill="none" xmlns="http://www.w3.org/2000/svg">
<g opacity="0.4">
<path d="M12.2708 7.41663V8.56246" stroke="white" stroke-width="1.3" stroke-linecap="round" stroke-linejoin="round"/>
<path d="M12.2708 16.5833V15.4375" stroke="white" stroke-width="1.3" stroke-linecap="round" stroke-linejoin="round"/>
<path d="M14.5506 10.1666C14.491 9.27195 13.7531 8.56245 12.8438 8.56245H11.5879C10.6988 8.56245 9.97919 9.28295 9.97919 10.1712C9.97919 10.9091 10.4815 11.5526 11.1965 11.7323L13.3443 12.2713C14.0602 12.451 14.5616 13.0945 14.5616 13.8324C14.5616 14.7215 13.8411 15.4411 12.9529 15.4411H11.697C10.7859 15.4411 10.0479 14.7298 9.98927 13.8333" stroke="white" stroke-width="1.3" stroke-linecap="round" stroke-linejoin="round"/>
<path d="M6.88086 6.38262C8.31911 4.94437 10.3064 4.05521 12.5019 4.05521C16.8918 4.05521 20.4512 7.61279 20.4512 12.0009C20.4512 12.6132 20.3751 13.2072 20.244 13.7801" stroke="white" stroke-width="1.3" stroke-linecap="round" stroke-linejoin="round"/>
<path d="M19.0148 12.5518L20.4512 13.9883L21.8876 12.5518" stroke="white" stroke-width="1.3" stroke-linecap="round" stroke-linejoin="round"/>
<path d="M18.1192 17.6173C16.6809 19.0555 14.6936 19.9447 12.4982 19.9447C8.10824 19.9447 4.54883 16.3871 4.54883 11.999C4.54883 11.3867 4.62491 10.7927 4.75599 10.2198" stroke="white" stroke-width="1.3" stroke-linecap="round" stroke-linejoin="round"/>
<path d="M5.9852 11.4482L4.54878 10.0117L3.11237 11.4482" stroke="white" stroke-width="1.3" stroke-linecap="round" stroke-linejoin="round"/>
</g>
</svg>
