<svg xmlns="http://www.w3.org/2000/svg" width="11.35" height="11.35" viewBox="0 0 11.35 11.35">
  <g id="blood-drop" transform="translate(0.1 0.1)">
    <path id="Path_24319" data-name="Path 24319" d="M7.557,1.982a3.572,3.572,0,0,0-1.514.335c-.357-.552-.724-1.074-1.05-1.49C4.393.061,4.218,0,4.051,0s-.355.066-1,.9A22.351,22.351,0,0,0,1.772,2.771C1.11,3.845,0,5.835,0,7.1A4.051,4.051,0,0,0,7.534,9.168h.023a3.593,3.593,0,0,0,0-7.187ZM4.051,10.5a3.4,3.4,0,0,1-3.4-3.4A9.292,9.292,0,0,1,2.221,3.289,16.781,16.781,0,0,1,4.051.726,14.277,14.277,0,0,1,5.478,2.646,3.592,3.592,0,0,0,6.8,9.089,3.4,3.4,0,0,1,4.051,10.5ZM7.557,8.515a2.94,2.94,0,1,1,2.94-2.94A2.943,2.943,0,0,1,7.557,8.515Z" transform="translate(0)" fill="#363636" stroke="#363636" stroke-width="0.2"/>
    <path id="Path_24320" data-name="Path 24320" d="M296.876,152.282a2.43,2.43,0,0,0-.655-.3l-.127-.044c-.374-.139-.439-.236-.437-.392,0-.316.331-.342.436-.342h0c.191,0,.494.093.494.336a.327.327,0,1,0,.653,0,.986.986,0,0,0-.8-.944v-.274a.327.327,0,1,0-.653,0v.264a1.1,1.1,0,0,0-.415.192.946.946,0,0,0-.369.762c-.006.7.625.927.929,1.034l.077.025c.463.159.607.242.605.451,0,.316-.331.342-.436.342h0c-.191,0-.494-.093-.494-.336a.327.327,0,0,0-.653,0,.986.986,0,0,0,.8.944v.285a.327.327,0,1,0,.653,0v-.275a1.1,1.1,0,0,0,.415-.192.946.946,0,0,0,.369-.762A.9.9,0,0,0,296.876,152.282Z" transform="translate(-288.578 -146.728)" fill="#363636" stroke="#363636" stroke-width="0.2"/>
  </g>
</svg>
