<svg xmlns="http://www.w3.org/2000/svg" width="14.731" height="12.084" viewBox="0 0 14.731 12.084">
  <g id="book_3_" data-name="book (3)" transform="translate(0 -46.003)">
    <path id="Path_24314" data-name="Path 24314" d="M14.3,347.729h-.46v-1.295a.432.432,0,0,0-.432-.432H9.092a2.156,2.156,0,0,0-1.726.865A2.156,2.156,0,0,0,5.639,346H1.324a.432.432,0,0,0-.432.432v1.295H.432a.432.432,0,0,0,0,.863H4.511a3.207,3.207,0,0,1,2.045.579,1.3,1.3,0,0,0,1.62,0,3.207,3.207,0,0,1,2.045-.579H14.3a.432.432,0,0,0,0-.863Zm-9.789,0H1.755v-.863H5.639a1.3,1.3,0,0,1,1.295,1.295v.217A4.171,4.171,0,0,0,4.511,347.729Zm3.286.649v-.217a1.3,1.3,0,0,1,1.295-1.295h3.884v.863H10.22A4.171,4.171,0,0,0,7.8,348.378Z" transform="translate(0 -291.368)" fill="#363636"/>
    <path id="Path_24315" data-name="Path 24315" d="M212.295,136a1.295,1.295,0,1,0,1.295,1.295A1.3,1.3,0,0,0,212.295,136Zm0,1.726a.432.432,0,1,1,.432-.432A.432.432,0,0,1,212.295,137.729Z" transform="translate(-204.929 -87.411)" fill="#363636"/>
    <path id="Path_24316" data-name="Path 24316" d="M129.723,48.693l-.863-1.5a.432.432,0,0,0-.59-.158l-.637.368a2.985,2.985,0,0,0-.411-.238v-.734A.432.432,0,0,0,126.79,46h-1.726a.432.432,0,0,0-.432.432v.734a2.989,2.989,0,0,0-.411.238l-.637-.368a.432.432,0,0,0-.59.158l-.863,1.5a.432.432,0,0,0,.158.59l.628.363a2.563,2.563,0,0,0,0,.485l-.628.363a.432.432,0,0,0-.158.59l.863,1.5a.432.432,0,0,0,.59.158l.637-.368a2.988,2.988,0,0,0,.411.238v.734a.432.432,0,0,0,.432.432h1.726a.432.432,0,0,0,.432-.432v-.734a2.988,2.988,0,0,0,.411-.238l.637.368a.432.432,0,0,0,.59-.158l.863-1.5a.432.432,0,0,0-.158-.59l-.628-.363a2.565,2.565,0,0,0,0-.485l.628-.363A.432.432,0,0,0,129.723,48.693Zm-1.678.8a1.936,1.936,0,0,1,0,.785.432.432,0,0,0,.209.452l.506.292-.432.748-.513-.3a.432.432,0,0,0-.5.045,2.139,2.139,0,0,1-.673.39.432.432,0,0,0-.287.407v.59H125.5v-.59a.432.432,0,0,0-.287-.407,2.138,2.138,0,0,1-.673-.39.432.432,0,0,0-.5-.045l-.513.3-.432-.748.506-.292a.432.432,0,0,0,.209-.452,1.935,1.935,0,0,1,0-.785.432.432,0,0,0-.209-.452l-.506-.292.432-.748.513.3a.432.432,0,0,0,.5-.045,2.139,2.139,0,0,1,.673-.39.432.432,0,0,0,.287-.407v-.59h.863v.59a.432.432,0,0,0,.287.407,2.139,2.139,0,0,1,.673.39.432.432,0,0,0,.5.045l.513-.3.432.748-.506.292a.432.432,0,0,0-.209.452Z" transform="translate(-118.562 0)" fill="#363636"/>
  </g>
</svg>
