<svg id="help_1_" data-name="help (1)" xmlns="http://www.w3.org/2000/svg" width="12.529" height="12.529" viewBox="0 0 12.529 12.529">
  <g id="Group_12663" data-name="Group 12663">
    <g id="Group_12662" data-name="Group 12662">
      <path id="Path_24326" data-name="Path 24326" d="M222.315,343.22a.657.657,0,0,0,0,1.314.657.657,0,1,0,0-1.314Z" transform="translate(-216.243 -334.821)" fill="#363636"/>
      <path id="Path_24327" data-name="Path 24327" d="M185.7,140c-1.152,0-1.68.682-1.68,1.143a.489.489,0,0,0,.512.486c.461,0,.273-.657,1.143-.657.426,0,.768.188.768.58,0,.461-.478.725-.759.964a1.561,1.561,0,0,0-.572,1.3c0,.444.119.572.469.572.418,0,.5-.188.5-.35a1.071,1.071,0,0,1,.478-1.066,2.183,2.183,0,0,0,.955-1.561C187.519,140.608,186.794,140,185.7,140Z" transform="translate(-179.519 -136.576)" fill="#363636"/>
      <path id="Path_24328" data-name="Path 24328" d="M6.265,0A6.261,6.261,0,0,0,0,6.265V12.04a.489.489,0,0,0,.489.489H6.265A6.265,6.265,0,0,0,6.265,0Zm0,11.55H.979V6.265A5.286,5.286,0,1,1,6.265,11.55Z" fill="#363636"/>
    </g>
  </g>
</svg>
