<svg xmlns="http://www.w3.org/2000/svg" width="13.861" height="13.822" viewBox="0 0 13.861 13.822">
  <g id="Page-1" transform="translate(-0.322 0.1)">
    <g id="_026---Idea" data-name="026---Idea" transform="translate(0.424)">
      <path id="Shape" d="M13.058,13.3a.462.462,0,0,0-.453-.375h-.446l-.033-.2a.464.464,0,0,0-.386-.383c-.044-.007-.088-.012-.132-.018a1.408,1.408,0,0,0-.175-1.03.945.945,0,0,0-.685-1.264,1.965,1.965,0,0,0-1.919-1.6c-.023,0-.044,0-.066,0a.939.939,0,0,0-1.437-.179A1.585,1.585,0,0,0,6.464,8a1.6,1.6,0,0,0-1.26.621,1.15,1.15,0,0,0-1.47,1.033.95.95,0,0,0-.582.876.939.939,0,0,0,.023.2,1.858,1.858,0,0,0-.221,1.593l-.185.025a.465.465,0,0,0-.389.382l-.033.2H1.9a.462.462,0,0,0-.453.374L.437,18.488a.693.693,0,0,0,.681.825H5.933a1.624,1.624,0,0,0,1.32.462,1.615,1.615,0,0,0,1.314-.462h4.821a.693.693,0,0,0,.681-.824ZM3.85,10.947a.488.488,0,0,1,.249-.906.479.479,0,0,1,.388.2.231.231,0,0,0,.371-.275A.933.933,0,0,0,4.2,9.593a.7.7,0,0,1,.685-.556.719.719,0,0,1,.084.009,1.516,1.516,0,0,0-.048.145.231.231,0,0,0,.447.115,1.123,1.123,0,0,1,.12-.289,1.14,1.14,0,0,1,.974-.556,1.121,1.121,0,0,1,.612.185.939.939,0,0,0-.054.3.231.231,0,0,0,.462,0,.486.486,0,1,1,.971,0,.231.231,0,0,0,.462,0c0-.018,0-.035-.005-.052a1.5,1.5,0,0,1,1.367,1.156.937.937,0,0,0-.3.149.231.231,0,1,0,.277.369.487.487,0,0,1,.714.63.492.492,0,0,1-.219.2.231.231,0,0,0,.1.439.228.228,0,0,0,.1-.022.948.948,0,0,0,.172-.108.986.986,0,0,1-.2.985l-.006.006a1,1,0,0,1-1.177.216.917.917,0,0,1-.112-.07.786.786,0,0,0,.061-.813.231.231,0,1,0-.413.208.344.344,0,0,1-.111.435.348.348,0,0,1-.5-.128.231.231,0,1,0-.413.207.8.8,0,0,0,.719.445.792.792,0,0,0,.29-.057,1.367,1.367,0,0,0,.271.185,1.422,1.422,0,0,0,1.066.1,1.472,1.472,0,0,1-.951.583.231.231,0,0,0,.036.459l.037,0a1.9,1.9,0,0,0,.41-.12,2.064,2.064,0,0,1,.172.4.238.238,0,0,1,.012.075.249.249,0,0,1-.151.229.261.261,0,0,1-.3-.08,1.474,1.474,0,0,0-.676-.449c-.5-.167-.691-.317-.773-.479a2.216,2.216,0,0,0,.354-.074.231.231,0,0,0-.136-.441,1.75,1.75,0,0,1-.4.073,1.714,1.714,0,0,1-.765-.115.231.231,0,0,0-.259.064.989.989,0,0,1-1.594-1.156.232.232,0,0,0-.4-.238,1.442,1.442,0,0,0-.132.3.346.346,0,0,1-.328-.34V12.1a.228.228,0,0,0-.231-.228.233.233,0,0,0-.231.234.8.8,0,0,0,.717.8,1.449,1.449,0,0,0,.021.231,1.411,1.411,0,0,1-1.6-1.932.931.931,0,0,0,.172.137.231.231,0,0,0,.238-.4ZM2.835,12.8c.106-.016.216-.03.326-.044a1.864,1.864,0,0,0,2.025.821,1.446,1.446,0,0,0,2.265.384,2.216,2.216,0,0,0,.482.087c.112.423.434.679,1.111.906a1.023,1.023,0,0,1,.47.31.735.735,0,0,0,.558.262.7.7,0,0,0,.274-.056.711.711,0,0,0,.432-.654.685.685,0,0,0-.035-.218,2.524,2.524,0,0,0-.2-.47,1.946,1.946,0,0,0,.767-1.173,1.446,1.446,0,0,0,.133-.186c.077.01.155.019.232.032l.833,5.013a7.925,7.925,0,0,0-5.02,0v-2.89a.231.231,0,0,0-.462,0v2.891a7.927,7.927,0,0,0-5.02,0Zm-1.9,5.964a.229.229,0,0,1-.048-.189L1.9,13.386H2.27l-.725,4.354a.463.463,0,0,0,.6.516,7.724,7.724,0,0,1,3.813-.242l-.069.837H1.118a.233.233,0,0,1-.18-.085Zm6.314.547a1.362,1.362,0,0,1-.922-.238l.079-.958a4.934,4.934,0,0,1,.743.249.233.233,0,0,0,.1.023.23.23,0,0,0,.1-.023,4.918,4.918,0,0,1,.743-.251l.079.96a1.36,1.36,0,0,1-.922.238Zm6.314-.547a.232.232,0,0,1-.18.085H8.62l-.069-.839a7.726,7.726,0,0,1,3.815.244.463.463,0,0,0,.594-.517l-.724-4.353H12.6l1.011,5.19A.229.229,0,0,1,13.567,18.766Z" transform="translate(-0.424 -6.153)" fill="#43bf97" stroke="#43bf97" stroke-width="0.2"/>
      <path id="Shape-2" data-name="Shape" d="M26.433,20.61a.231.231,0,0,0-.016.326,1.392,1.392,0,0,0,.74.427.688.688,0,0,1-.562.29.231.231,0,0,0,0,.462,1.145,1.145,0,0,0,1.076-.74,1.393,1.393,0,0,0,1.14-1.108.231.231,0,1,0-.453-.087.92.92,0,0,1-.382.586.942.942,0,0,1-1.215-.139.231.231,0,0,0-.326-.016Z" transform="translate(-20.369 -15.372)" fill="#43bf97" stroke="#43bf97" stroke-width="0.2"/>
      <path id="Shape-3" data-name="Shape" d="M22.431,17.293a.231.231,0,0,0,.231-.231.6.6,0,0,1,.6-.6.231.231,0,1,0,0-.462A1.063,1.063,0,0,0,22.2,17.062a.231.231,0,0,0,.231.231Z" transform="translate(-17.172 -12.306)" fill="#43bf97" stroke="#43bf97" stroke-width="0.2"/>
      <path id="Shape-4" data-name="Shape" d="M29.462.462V.231a.231.231,0,1,0-.462,0V.462a.231.231,0,1,0,.462,0Z" transform="translate(-22.402)" fill="#43bf97" stroke="#43bf97" stroke-width="0.2"/>
      <path id="Shape-5" data-name="Shape" d="M45.406,6.941l-.231.231A.231.231,0,1,0,45.5,7.5l.231-.231a.231.231,0,1,0-.326-.326Z" transform="translate(-34.789 -5.284)" fill="#43bf97" stroke="#43bf97" stroke-width="0.2"/>
      <path id="Shape-6" data-name="Shape" d="M12.335,7.566a.231.231,0,0,0,.163-.394l-.231-.231a.231.231,0,1,0-.326.326l.231.231a.231.231,0,0,0,.163.068Z" transform="translate(-9.228 -5.284)" fill="#43bf97" stroke="#43bf97" stroke-width="0.2"/>
      <path id="Shape-7" data-name="Shape" d="M19.922,1.99a.234.234,0,0,0,.088-.018.231.231,0,0,0,.125-.3l-.265-.64a.231.231,0,1,0-.426.177l.265.64a.231.231,0,0,0,.213.142Z" transform="translate(-15.037 -0.679)" fill="#43bf97" stroke="#43bf97" stroke-width="0.2"/>
      <path id="Shape-8" data-name="Shape" d="M38,.92a.231.231,0,0,0-.3.125l-.265.64a.231.231,0,0,0,.125.3A.234.234,0,0,0,37.649,2a.231.231,0,0,0,.213-.142l.265-.64A.231.231,0,0,0,38,.92Z" transform="translate(-28.877 -0.694)" fill="#43bf97" stroke="#43bf97" stroke-width="0.2"/>
      <path id="Shape-9" data-name="Shape" d="M49.553,15.16a.231.231,0,0,0,.088-.018l.64-.265a.231.231,0,1,0-.177-.427l-.64.265a.231.231,0,0,0,.088.444Z" transform="translate(-38.032 -11.101)" fill="#43bf97" stroke="#43bf97" stroke-width="0.2"/>
      <path id="Shape-10" data-name="Shape" d="M6.686,15.142a.231.231,0,1,0,.177-.427l-.64-.265a.231.231,0,1,0-.177.427Z" transform="translate(-4.638 -11.1)" fill="#43bf97" stroke="#43bf97" stroke-width="0.2"/>
    </g>
  </g>
</svg>
