<svg xmlns="http://www.w3.org/2000/svg" width="20.171" height="18.909" viewBox="0 0 20.171 18.909">
  <g id="Group_12528" data-name="Group 12528" transform="translate(-40.74 -5206)">
    <g id="browser" transform="translate(40.74 5203)">
      <path id="Path_1700" data-name="Path 1700" d="M55.207,203.94H41.812A1.814,1.814,0,0,1,40,202.128v-9.535a.63.63,0,0,1,1.261,0v9.535a.552.552,0,0,0,.552.552H55.207a.552.552,0,0,0,.552-.552v-9.535a.63.63,0,0,1,1.261,0v9.535A1.814,1.814,0,0,1,55.207,203.94Z" transform="translate(-38.424 -182.031)" fill="#363636"/>
      <path id="Path_1701" data-name="Path 1701" d="M19.541,25.785A.628.628,0,0,1,19.1,25.6l-7.84-7.839a1.656,1.656,0,0,0-2.34,0L1.076,25.6a.63.63,0,0,1-.891-.891l7.839-7.84a2.919,2.919,0,0,1,4.123,0l7.839,7.839a.63.63,0,0,1-.446,1.076Z" transform="translate(0 -13.017)" fill="#363636"/>
      <path id="Path_1702" data-name="Path 1702" d="M181.673,296.178H176.63a.63.63,0,0,1-.63-.63v-5.594a1.972,1.972,0,0,1,1.97-1.97h2.364a1.972,1.972,0,0,1,1.97,1.97v5.594A.63.63,0,0,1,181.673,296.178Zm-4.412-1.261h3.782v-4.964a.71.71,0,0,0-.709-.709H177.97a.71.71,0,0,0-.709.709Z" transform="translate(-169.066 -274.268)" fill="#363636"/>
    </g>
  </g>
</svg>
