<svg xmlns="http://www.w3.org/2000/svg" width="16.715" height="20.035" viewBox="0 0 16.715 20.035">
  <g id="Group_12528" data-name="Group 12528" transform="translate(-103.409 -5203)">
    <g id="user_5_" data-name="user(5)" transform="translate(103.409 5203)">
      <path id="Path_1703" data-name="Path 1703" d="M91.857,9.651a4.669,4.669,0,0,0,3.412-1.414,4.669,4.669,0,0,0,1.414-3.412,4.67,4.67,0,0,0-1.414-3.412,4.824,4.824,0,0,0-6.824,0,4.669,4.669,0,0,0-1.414,3.412,4.669,4.669,0,0,0,1.414,3.412A4.671,4.671,0,0,0,91.857,9.651ZM89.276,2.244a3.65,3.65,0,0,1,5.163,0,3.489,3.489,0,0,1,1.07,2.582,3.488,3.488,0,0,1-1.07,2.582,3.65,3.65,0,0,1-5.163,0,3.488,3.488,0,0,1-1.07-2.582A3.488,3.488,0,0,1,89.276,2.244Zm0,0" transform="translate(-83.626 0)" fill="#43bf97"/>
      <path id="Path_1704" data-name="Path 1704" d="M16.674,253.044a11.917,11.917,0,0,0-.162-1.266,9.972,9.972,0,0,0-.311-1.273,6.289,6.289,0,0,0-.523-1.187,4.476,4.476,0,0,0-.789-1.028,3.479,3.479,0,0,0-1.133-.712,3.918,3.918,0,0,0-1.447-.262,1.469,1.469,0,0,0-.784.333c-.235.153-.51.331-.817.527a4.681,4.681,0,0,1-1.057.466,4.1,4.1,0,0,1-2.586,0,4.667,4.667,0,0,1-1.056-.466c-.3-.194-.579-.372-.818-.527a1.467,1.467,0,0,0-.784-.333,3.913,3.913,0,0,0-1.447.262,3.476,3.476,0,0,0-1.134.712,4.476,4.476,0,0,0-.789,1.028,6.3,6.3,0,0,0-.523,1.187A10,10,0,0,0,.2,251.779a11.836,11.836,0,0,0-.162,1.266c-.027.383-.04.781-.04,1.183a3.327,3.327,0,0,0,.988,2.517,3.557,3.557,0,0,0,2.546.929h9.647a3.557,3.557,0,0,0,2.546-.929,3.326,3.326,0,0,0,.988-2.517c0-.4-.014-.8-.041-1.183Zm-1.757,2.85a2.4,2.4,0,0,1-1.737.605H3.534a2.4,2.4,0,0,1-1.737-.6,2.172,2.172,0,0,1-.623-1.666c0-.375.012-.746.037-1.1a10.677,10.677,0,0,1,.147-1.14,8.82,8.82,0,0,1,.274-1.122,5.129,5.129,0,0,1,.426-.965,3.317,3.317,0,0,1,.58-.76,2.307,2.307,0,0,1,.754-.469,2.7,2.7,0,0,1,.925-.178c.041.022.114.064.233.141.241.157.52.337.827.533a5.818,5.818,0,0,0,1.327.593,5.278,5.278,0,0,0,3.308,0,5.826,5.826,0,0,0,1.328-.593c.315-.2.585-.375.826-.533.119-.077.192-.119.233-.141a2.7,2.7,0,0,1,.925.178,2.311,2.311,0,0,1,.754.469,3.308,3.308,0,0,1,.58.76,5.11,5.11,0,0,1,.426.965,8.8,8.8,0,0,1,.274,1.122,10.769,10.769,0,0,1,.147,1.14h0c.025.354.037.725.038,1.1a2.172,2.172,0,0,1-.624,1.666Zm0,0" transform="translate(0 -237.639)" fill="#43bf97"/>
    </g>
  </g>
</svg>
